HIERARCHY
ROOT Hips
{
    OFFSET 0.000000 0.000000 0.000000
    CHANNELS 6 Xposition Yposition Zposition Zrotation Xrotation Yrotation
    JOINT Spine
    {
        OFFSET -0.000000 14.517291 0.000000
        CHANNELS 3 Zrotation Xrotation Yrotation
        JOINT Spine1
        {
            OFFSET -0.000000 37.558300 0.000000
            CHANNELS 3 Zrotation Xrotation Yrotation
            JOINT Neck
            {
                OFFSET -0.000000 37.404057 3.400369
                CHANNELS 3 Zrotation Xrotation Yrotation
                JOINT Head
                {
                    OFFSET -0.000000 24.785618 -3.540803
                    CHANNELS 3 Zrotation Xrotation Yrotation
                    End Site
                    {
                        OFFSET -0.000000 35.408028 0.000000
                    }
                }
            }
            JOINT LeftShoulder
            {
                OFFSET 6.992933 33.973492 -0.192664
                CHANNELS 3 Zrotation Xrotation Yrotation
                JOINT LeftArm
                {
                    OFFSET 21.527611 0.000000 0.000000
                    CHANNELS 3 Zrotation Xrotation Yrotation
                    JOINT LeftForeArm
                    {
                        OFFSET 56.353916 0.000000 0.000000
                        CHANNELS 3 Zrotation Xrotation Yrotation
                        JOINT LeftHand
                        {
                            OFFSET 47.774071 0.000000 0.000000
                            CHANNELS 3 Zrotation Xrotation Yrotation
                            End Site
                            {
                                OFFSET 26.556021 0.000000 0.000000
                            }
                        }
                    }
                }
            }
            JOINT RightShoulder
            {
                OFFSET -7.065357 33.973492 -0.192664
                CHANNELS 3 Zrotation Xrotation Yrotation
                JOINT RightArm
                {
                    OFFSET -21.527611 0.000000 0.000000
                    CHANNELS 3 Zrotation Xrotation Yrotation
                    JOINT RightForeArm
                    {
                        OFFSET -56.353916 0.000000 0.000000
                        CHANNELS 3 Zrotation Xrotation Yrotation
                        JOINT RightHand
                        {
                            OFFSET -47.774071 0.000000 0.000000
                            CHANNELS 3 Zrotation Xrotation Yrotation
                            End Site
                            {
                                OFFSET -26.556021 0.000000 0.000000
                            }
                        }
                    }
                }
            }
        }
    }
    JOINT LeftUpLeg
    {
        OFFSET 17.704014 0.000000 0.000000
        CHANNELS 3 Zrotation Xrotation Yrotation
        JOINT LeftLeg
        {
            OFFSET -0.000000 -81.181816 0.000000
            CHANNELS 3 Zrotation Xrotation Yrotation
            JOINT LeftFoot
            {
                OFFSET -0.000000 -62.821102 0.000000
                CHANNELS 3 Zrotation Xrotation Yrotation
                JOINT LeftToeBase
                {
                    OFFSET -0.000000 -11.507608 26.556021
                    CHANNELS 3 Zrotation Xrotation Yrotation
                    End Site
                    {
                        OFFSET -0.000000 0.000000 7.081605
                    }
                }
            }
        }
    }
    JOINT RightUpLeg
    {
        OFFSET -17.704014 0.000000 0.000000
        CHANNELS 3 Zrotation Xrotation Yrotation
        JOINT RightLeg
        {
            OFFSET -0.000000 -81.181816 0.000000
            CHANNELS 3 Zrotation Xrotation Yrotation
            JOINT RightFoot
            {
                OFFSET -0.000000 -62.821102 0.000000
                CHANNELS 3 Zrotation Xrotation Yrotation
                JOINT RightToeBase
                {
                    OFFSET -0.000000 -11.507608 26.556021
                    CHANNELS 3 Zrotation Xrotation Yrotation
                    End Site
                    {
                        OFFSET -0.000000 0.000000 7.081605
                    }
                }
            }
        }
    }
}
MOTION
Frames:    5
Frame Time:    0.008333
11.825046    119.155739    -0.432226    4.675395    2.967863    -42.370907    0.727159    8.089162    3.243992    -0.234191    -4.773549    1.087045    18.769846    5.701229    18.278826    -16.189175    -4.721046    14.280744    -0.736304    9.343511    -11.516508    -40.720161    6.205267    -35.613014    43.290104    -46.662830    -43.194672    -22.769608    -26.186001    -36.344421    -3.488510    6.392024    -0.281638    34.204021    8.172406    77.366127    3.913228    -12.084442    95.960434    11.938857    -13.986883    22.594685    50.853214    -41.770557    29.313761    -79.929092    62.070923    41.388485    6.765000    -26.435528    36.914360    0.000000    0.000000    0.000000    -42.425011    -28.322569    -19.447868    86.766083    79.058548    -76.360298    20.895922    -35.582573    12.826954    0.000000    0.000000    0.000000    
11.832037    119.174591    -0.413491    4.688196    2.978436    -42.382080    0.729036    8.086503    3.261204    -0.224502    -4.791964    1.093161    18.752485    5.687878    18.258141    -16.148594    -4.711186    14.267124    -0.742548    9.353715    -11.529158    -40.735546    6.199057    -35.586971    43.256096    -46.664585    -43.236732    -22.735088    -26.199377    -36.324841    -3.498002    6.411825    -0.291509    34.196728    8.181606    77.369598    3.900347    -12.127695    95.963547    11.922608    -14.027778    22.514578    50.846272    -41.775154    29.312235    -79.920975    62.068413    41.362362    6.777498    -26.427357    36.934479    0.000000    0.000000    0.000000    -42.421719    -28.336409    -19.452547    86.639313    79.066933    -76.250702    20.906406    -35.559746    12.817179    0.000000    0.000000    0.000000    
11.840873    119.194580    -0.392192    4.704121    2.987152    -42.393291    0.732002    8.077839    3.270670    -0.217870    -4.800198    1.096645    18.728771    5.691407    18.241816    -16.110138    -4.726674    14.257774    -0.754292    9.352169    -11.524549    -40.757545    6.196083    -35.567043    43.234566    -46.662292    -43.268085    -22.721437    -26.200813    -36.303032    -3.507506    6.428282    -0.307116    34.202789    8.185297    77.384773    3.916312    -12.137552    95.953743    11.903499    -14.059969    22.494268    50.828087    -41.783386    29.300373    -79.912636    62.055851    41.365780    6.785618    -26.423946    36.958591    0.000000    0.000000    0.000000    -42.423023    -28.357016    -19.452721    86.531662    79.080307    -76.150269    20.904980    -35.534668    12.795979    0.000000    0.000000    0.000000    
11.851872    119.213554    -0.369611    4.716393    2.988061    -42.405125    0.735535    8.081807    3.272517    -0.223386    -4.809175    1.097114    18.708120    5.674490    18.222330    -16.052614    -4.720740    14.247673    -0.748720    9.356997    -11.510568    -40.777740    6.211466    -35.552605    43.249928    -46.679073    -43.277966    -22.721558    -26.215498    -36.285942    -3.502936    6.431285    -0.316600    34.196049    8.201236    77.398026    3.926098    -12.167765    95.947441    11.910649    -14.103887    22.444887    50.798176    -41.785625    29.280230    -79.896584    62.048500    41.337265    6.812026    -26.422606    36.994370    0.000000    0.000000    0.000000    -42.432625    -28.374580    -19.419455    86.467445    79.059723    -76.101448    20.910278    -35.486328    12.786033    0.000000    0.000000    0.000000    
11.854517    119.232956    -0.347115    4.724015    2.990980    -42.418568    0.721735    8.078555    3.285665    -0.192832    -4.812191    1.102422    18.706114    5.661326    18.206940    -16.043104    -4.693842    14.234852    -0.772360    9.354591    -11.509871    -40.803680    6.177719    -35.520134    43.157932    -46.671200    -43.385178    -22.683788    -26.218550    -36.245502    -3.515234    6.438239    -0.343272    34.193172    8.214445    77.409950    3.955280    -12.180745    95.942345    11.938205    -14.143610    22.433235    50.779694    -41.776699    29.266510    -79.884239    62.039494    41.318123    6.832050    -26.425722    37.012211    0.000000    0.000000    0.000000    -42.424065    -28.392229    -19.382572    86.379997    79.051872    -76.020241    20.935652    -35.446579    12.769211    0.000000    0.000000    0.000000    
